<svg width="48" height="48" viewBox="0 0 48 48" fill="none" xmlns="http://www.w3.org/2000/svg">
<path d="M9.50391 18.144C12.3234 18.144 15.1429 18.144 18.0479 18.144C17.7262 18.3049 17.4599 18.3964 17.1179 18.492C16.3769 18.7363 15.7988 19.1604 15.4199 19.854C15.2361 20.3277 15.1096 20.8219 14.9759 21.312C18.4924 21.312 22.0089 21.312 25.6319 21.312C25.3805 21.5634 25.2311 21.6744 24.9242 21.8278C24.8385 21.871 24.7528 21.9143 24.6644 21.9588C24.5706 22.0053 24.4768 22.0518 24.3801 22.0998C24.2317 22.1743 24.2317 22.1743 24.0802 22.2503C23.7526 22.4145 23.4246 22.5779 23.0965 22.7412C22.8692 22.8548 22.642 22.9685 22.4147 23.0822C21.9384 23.3204 21.4618 23.5581 20.9851 23.7956C20.4335 24.0704 19.8823 24.3458 19.3313 24.6216C18.8014 24.8868 18.2713 25.1516 17.7411 25.4162C17.5153 25.5289 17.2896 25.6417 17.064 25.7546C16.7492 25.9119 16.4343 26.0688 16.1193 26.2256C15.9782 26.2962 15.9782 26.2962 15.8344 26.3684C15.7489 26.4107 15.6634 26.4531 15.5754 26.4968C15.4636 26.5525 15.4636 26.5525 15.3496 26.6094C15.1679 26.688 15.1679 26.688 14.9759 26.688C14.9759 27.7335 14.9759 28.7789 14.9759 29.856C13.1701 29.856 11.3644 29.856 9.50391 29.856C9.50391 25.9911 9.50391 22.1261 9.50391 18.144Z" fill="#2F3841"/>
<path d="M33.0242 18.144C34.8299 18.144 36.6357 18.144 38.4962 18.144C38.4962 22.009 38.4962 25.874 38.4962 29.856C35.645 29.856 32.7938 29.856 29.8562 29.856C29.8562 29.8244 29.8562 29.7927 29.8562 29.76C29.9512 29.739 30.0462 29.718 30.1442 29.6963C31.1818 29.4529 31.8875 29.1357 32.5202 28.2383C32.8033 27.7517 32.9146 27.2357 33.0242 26.688C29.5077 26.688 25.9912 26.688 22.3682 26.688C22.6196 26.4366 22.769 26.3257 23.0758 26.1722C23.1616 26.129 23.2473 26.0858 23.3356 26.0413C23.4295 25.9948 23.5233 25.9482 23.6199 25.9003C23.7189 25.8506 23.8179 25.8009 23.9199 25.7498C24.2475 25.5856 24.5755 25.4222 24.9035 25.2589C25.1308 25.1453 25.3581 25.0316 25.5854 24.9179C26.0617 24.6797 26.5383 24.442 27.015 24.2045C27.5666 23.9297 28.1178 23.6543 28.6688 23.3785C29.1987 23.1133 29.7288 22.8485 30.259 22.5839C30.4847 22.4712 30.7104 22.3584 30.9361 22.2455C31.2508 22.0881 31.5658 21.9313 31.8808 21.7745C31.9748 21.7274 32.0688 21.6803 32.1657 21.6317C32.2512 21.5893 32.3366 21.5469 32.4247 21.5033C32.4992 21.4661 32.5737 21.429 32.6504 21.3907C32.8322 21.312 32.8322 21.312 33.0242 21.312C33.0242 20.2666 33.0242 19.2212 33.0242 18.144Z" fill="#2F3841"/>
<path d="M9.50391 18.144C12.3234 18.144 15.1429 18.144 18.0479 18.144C17.7262 18.3049 17.4599 18.3964 17.1179 18.492C16.4957 18.6921 16.096 19.0218 15.6479 19.488C15.6479 19.2 15.6479 19.2 15.8024 19.0283C15.8702 18.9701 15.938 18.912 16.0079 18.852C16.1081 18.7641 16.1081 18.7641 16.2104 18.6743C16.4136 18.5297 16.5564 18.4726 16.7999 18.432C16.7999 18.3687 16.7999 18.3053 16.7999 18.24C14.4556 18.24 12.1113 18.24 9.69591 18.24C9.69591 22.0416 9.69591 25.8432 9.69591 29.76C11.4066 29.76 13.1173 29.76 14.8799 29.76C14.8799 28.7463 14.8799 27.7325 14.8799 26.688C14.9116 26.688 14.9433 26.688 14.9759 26.688C14.9759 27.7335 14.9759 28.7789 14.9759 29.856C13.1701 29.856 11.3644 29.856 9.50391 29.856C9.50391 25.9911 9.50391 22.1261 9.50391 18.144Z" fill="#2F3841"/>
<path d="M15.4559 19.488C15.4876 19.5514 15.5192 19.6148 15.5519 19.68C15.484 19.8608 15.484 19.8608 15.3779 20.076C15.1701 20.4976 15.0972 20.8268 14.9759 21.312C18.4924 21.312 22.0088 21.312 25.6319 21.312C25.3807 21.5632 25.2307 21.6747 24.9242 21.8285C24.8385 21.8718 24.7527 21.9152 24.6644 21.9598C24.5706 22.0065 24.4768 22.0532 24.3801 22.1013C24.2811 22.1511 24.1821 22.201 24.0802 22.2523C23.7526 22.417 23.4246 22.5808 23.0965 22.7445C22.8692 22.8584 22.6419 22.9723 22.4147 23.0862C21.9383 23.3249 21.4618 23.563 20.985 23.8009C20.4334 24.0762 19.8822 24.3524 19.3313 24.6292C18.8015 24.8952 18.2714 25.1604 17.7411 25.4253C17.5153 25.5382 17.2895 25.6513 17.0639 25.7647C16.7494 25.9227 16.4344 26.0797 16.1192 26.2364C15.9782 26.3076 15.9782 26.3076 15.8344 26.3803C15.7489 26.4226 15.6634 26.4648 15.5754 26.5084C15.5009 26.5456 15.4264 26.5828 15.3496 26.6212C15.2897 26.6433 15.2297 26.6653 15.1679 26.688C15.1045 26.6564 15.0412 26.6247 14.9759 26.592C16.2213 25.9309 17.4742 25.2871 18.7353 24.6563C18.913 24.5673 19.0907 24.4782 19.2684 24.3892C19.6363 24.205 20.0043 24.0209 20.3723 23.837C20.8445 23.6008 21.3165 23.3642 21.7884 23.1274C22.1531 22.9445 22.5181 22.7619 22.8831 22.5795C23.0574 22.4922 23.2317 22.4049 23.4059 22.3174C23.6474 22.1962 23.889 22.0755 24.1308 21.9549C24.2026 21.9187 24.2745 21.8825 24.3485 21.8452C24.842 21.6 24.842 21.6 25.0559 21.6C25.0559 21.5367 25.0559 21.4733 25.0559 21.408C21.6978 21.408 18.3397 21.408 14.8799 21.408C14.8799 20.5426 14.8799 20.5426 15.0599 20.178C15.0933 20.1081 15.1267 20.0382 15.1611 19.9662C15.2639 19.776 15.2639 19.776 15.4559 19.488Z" fill="#2F3841"/>
<path d="M38.4 18.144C38.4316 18.144 38.4633 18.144 38.496 18.144C38.496 22.009 38.496 25.874 38.496 29.856C35.6448 29.856 32.7936 29.856 29.856 29.856C29.856 29.8244 29.856 29.7927 29.856 29.76C30.0035 29.7218 30.0035 29.7218 30.1541 29.6828C30.2847 29.6486 30.4153 29.6143 30.546 29.58C30.6429 29.555 30.6429 29.555 30.7419 29.5294C31.0977 29.4357 31.438 29.3297 31.776 29.184C31.6809 29.3108 31.5859 29.4375 31.488 29.568C31.6686 29.7487 31.9799 29.6808 32.2205 29.6838C32.2881 29.6847 32.3557 29.6857 32.4253 29.6867C32.645 29.6897 32.8647 29.6921 33.0843 29.6944C33.2196 29.6962 33.3548 29.698 33.4901 29.6998C33.9927 29.7064 34.4953 29.7122 34.998 29.718C36.6819 29.7388 36.6819 29.7388 38.4 29.76C38.4 25.9268 38.4 22.0935 38.4 18.144Z" fill="#2F3841"/>
<path d="M23.2322 26.1121C23.2955 26.1437 23.3589 26.1754 23.4242 26.2081C23.1866 26.3506 23.1866 26.3506 22.9442 26.4961C27.9813 26.5436 27.9813 26.5436 33.1202 26.5921C33.1202 27.2641 33.1202 27.2641 32.9282 27.5521C32.9598 27.2669 32.9915 26.9818 33.0242 26.6881C29.5077 26.6881 25.9912 26.6881 22.3682 26.6881C22.6511 26.4052 22.8679 26.2671 23.2322 26.1121Z" fill="#2F3841"/>
<path d="M16.4159 18.144C16.9545 18.144 17.4931 18.144 18.0479 18.144C17.7262 18.3049 17.4599 18.3964 17.1179 18.492C16.4957 18.6921 16.0961 19.0218 15.6479 19.488C15.6479 19.2 15.6479 19.2 15.8024 19.0283C15.9042 18.941 15.9042 18.941 16.0079 18.852C16.0748 18.7934 16.1416 18.7347 16.2104 18.6743C16.4136 18.5297 16.5564 18.4726 16.7999 18.432C16.7999 18.3687 16.7999 18.3053 16.7999 18.24C16.6732 18.2084 16.5465 18.1767 16.4159 18.144Z" fill="#2F3841"/>
<path d="M24.9601 21.312C25.1818 21.312 25.4036 21.312 25.6321 21.312C25.3779 21.6104 25.0764 21.7503 24.7279 21.9221C24.6687 21.9516 24.6094 21.981 24.5484 22.0113C24.3599 22.1048 24.171 22.1974 23.9821 22.29C23.8538 22.3534 23.7257 22.4168 23.5975 22.4803C23.284 22.6355 22.9701 22.7899 22.6561 22.944C22.6244 22.8807 22.5927 22.8173 22.5601 22.752C22.9397 22.5594 23.3199 22.3676 23.7001 22.176C23.8083 22.1211 23.9166 22.0661 24.0282 22.0095C24.1832 21.9315 24.1832 21.9315 24.3413 21.852C24.4368 21.8037 24.5323 21.7555 24.6308 21.7058C24.8641 21.6 24.8641 21.6 25.0561 21.6C25.0244 21.505 24.9927 21.4099 24.9601 21.312Z" fill="#2F3841"/>
<path d="M24.96 21.312C25.1817 21.312 25.4035 21.312 25.632 21.312C25.4109 21.5617 25.2001 21.6814 24.894 21.81C24.7776 21.8596 24.7776 21.8596 24.6589 21.9101C24.5998 21.9345 24.5408 21.9589 24.48 21.984C24.48 21.9207 24.48 21.8573 24.48 21.792C24.6701 21.7287 24.8601 21.6653 25.056 21.6C25.0243 21.505 24.9926 21.4099 24.96 21.312Z" fill="#2F3841"/>
</svg>
