<svg width="237" height="649" viewBox="0 0 237 649" fill="none" xmlns="http://www.w3.org/2000/svg">
<path d="M15.6611 337.886C27.6611 327.089 42.9805 311.04 42.9805 311.04L52.5771 299.729C61.7041 286.293 68.9033 273.049 74.3594 261.688C83.6572 242.328 87.8809 228.438 87.8809 228.438C89.252 226.382 88.5674 222.611 90.9658 220.212C93.3662 217.812 95.7656 208.216 95.7656 208.216C107.076 181.139 114.272 121.843 114.272 121.843C114.959 120.47 114.615 117.386 115.645 115.673C116.673 113.959 116.33 111.902 118.044 102.305C119.757 92.7079 123.87 96.4784 123.87 96.4784C127.983 101.276 131.411 96.4784 133.467 93.7362C135.056 91.6171 135.62 86.8505 135.795 84.786C135.846 84.1776 135.865 83.7929 135.865 83.7929C132.779 79.6796 134.837 77.2802 135.522 75.5673C136.207 73.8534 141.349 58.7714 140.664 55.0019C140.562 54.4442 140.535 53.872 140.564 53.3017C140.564 53.3017 147.52 55.0019 150.261 55.0019C153.003 55.0019 156.087 54.3163 158.145 54.3163C160.201 54.3163 165.343 51.9169 167.398 53.288C169.456 54.6591 173.226 58.4296 173.226 58.4296C173.226 58.4296 175.969 59.4579 178.367 59.4579C180.767 59.4579 183.166 58.0868 184.88 57.0585C185.36 56.7714 186.226 56.3427 187.242 55.831C189.848 54.5165 193.489 52.6181 194.476 50.8915C195.847 48.494 198.589 42.6659 198.246 39.581C197.904 36.497 199.96 27.5858 200.304 26.5575C200.646 25.5302 202.017 20.3886 204.416 23.4735C206.815 26.5575 208.528 27.5858 210.585 27.5858C212.641 27.5858 219.496 27.244 217.099 30.328C214.698 33.413 214.698 35.8124 215.042 37.1835C215.384 38.5546 216.413 40.954 214.698 46.7802C212.984 52.6063 212.641 61.8612 212.299 63.2323C211.958 64.6015 210.243 78.9989 210.243 78.9989L210.275 84.0868C210.717 84.3534 211.177 84.8925 211.614 85.8534C213.328 89.6239 215.727 95.1083 214.355 99.9052C214.355 99.9052 216.756 100.249 216.413 102.648C216.07 105.047 214.355 114.987 214.355 114.987C214.355 114.987 214.014 117.043 215.384 117.043V117.046C216.755 117.046 220.183 118.759 215.041 120.473C209.9 122.188 210.241 120.473 208.186 123.9C206.129 127.328 204.416 126.642 204.416 130.069C204.416 133.497 205.444 140.353 204.073 142.408C202.701 144.464 203.045 150.291 203.044 152.006C203.044 152.006 203.73 163.316 202.701 167.085C202.119 169.222 202.094 171.352 202.237 173.302C202.349 174.792 202.555 176.179 202.703 177.366C203.045 180.109 205.102 192.448 204.416 195.532L204.421 195.535C203.736 198.619 198.938 215.757 198.595 219.185C198.251 222.612 197.908 228.438 198.938 231.182C199.964 233.923 198.938 240.778 198.251 244.549C198.251 244.549 199.964 251.061 199.964 253.46C199.964 255.858 199.964 262.371 199.964 262.371L198.594 265.798L187.715 374.84C187.715 374.84 184.531 384.043 183.161 388.156C181.789 392.269 183.503 399.467 178.705 403.237C173.907 407.008 172.193 408.378 171.507 412.492C170.821 416.604 171.508 422.774 167.736 425.518C167.736 425.518 162.596 438.541 162.253 441.969C162.253 441.969 155.056 458.078 153.685 461.849C152.314 465.618 146.145 484.128 147.515 488.241C148.886 492.354 151.286 495.781 148.886 500.58C146.486 505.378 143.402 512.576 145.802 521.146C148.201 529.714 149.229 533.484 146.83 535.884C144.431 538.283 137.577 553.365 136.548 556.792C135.52 560.22 134.148 571.873 133.807 574.615C133.464 577.356 132.778 582.154 131.064 585.583C131.064 585.583 125.923 598.265 125.923 603.062C125.923 607.86 123.181 615.058 121.468 618.486L118.998 625.267C117.439 625.428 115.64 627.227 114.61 629.798C114.052 631.195 113.209 632.421 112.149 633.5C112.149 633.5 105.357 626.027 105.7 621.229C106.043 616.43 106.386 610.946 105.015 607.52C103.643 604.091 102.272 597.236 102.272 595.18L90.2764 559.191C90.2764 559.191 70.7393 497.153 67.998 494.068C67.998 494.068 65.165 491.976 62.6211 489.373C60.123 486.817 57.9004 483.77 58.9189 481.73C60.9756 477.618 60.9756 475.047 58.9189 471.447C56.8623 467.849 56.3477 462.707 56.3477 459.108C56.3477 459.108 44.5234 422.605 40.4102 414.894L15.6611 337.886Z" stroke="black" stroke-width="16"/>
<mask id="mask0_111_71" style="mask-type:luminance" maskUnits="userSpaceOnUse" x="15" y="22" width="203" height="612">
<path d="M15.661 337.886C27.661 327.089 42.9804 311.04 42.9804 311.04L52.577 299.729C61.704 286.293 68.9032 273.049 74.3593 261.688C83.6571 242.328 87.8808 228.438 87.8808 228.438C89.2519 226.382 88.5673 222.611 90.9657 220.212C93.3661 217.812 95.7655 208.216 95.7655 208.216C107.076 181.139 114.272 121.843 114.272 121.843C114.959 120.47 114.615 117.386 115.645 115.673C116.673 113.959 116.33 111.902 118.044 102.305C119.757 92.7079 123.87 96.4784 123.87 96.4784C127.983 101.276 131.411 96.4784 133.467 93.7362C135.056 91.6171 135.62 86.8505 135.795 84.786C135.846 84.1776 135.865 83.7929 135.865 83.7929C132.779 79.6796 134.837 77.2802 135.522 75.5673C136.207 73.8534 141.349 58.7714 140.664 55.0019C140.562 54.4442 140.535 53.872 140.564 53.3017C140.564 53.3017 147.52 55.0019 150.261 55.0019C153.003 55.0019 156.087 54.3163 158.145 54.3163C160.201 54.3163 165.343 51.9169 167.398 53.288C169.456 54.6591 173.226 58.4296 173.226 58.4296C173.226 58.4296 175.969 59.4579 178.367 59.4579C180.767 59.4579 183.166 58.0868 184.88 57.0585C185.36 56.7714 186.226 56.3427 187.242 55.831C189.848 54.5165 193.489 52.6181 194.476 50.8915C195.847 48.494 198.589 42.6659 198.246 39.581C197.904 36.497 199.96 27.5858 200.304 26.5575C200.646 25.5302 202.017 20.3886 204.416 23.4735C206.815 26.5575 208.528 27.5858 210.585 27.5858C212.641 27.5858 219.496 27.244 217.099 30.328C214.698 33.413 214.698 35.8124 215.042 37.1835C215.384 38.5546 216.413 40.954 214.698 46.7802C212.984 52.6063 212.641 61.8612 212.299 63.2323C211.958 64.6015 210.243 78.9989 210.243 78.9989L210.275 84.0868C210.717 84.3534 211.177 84.8925 211.614 85.8534C213.328 89.6239 215.727 95.1083 214.355 99.9052C214.355 99.9052 216.756 100.249 216.413 102.648C216.07 105.047 214.355 114.987 214.355 114.987C214.355 114.987 214.014 117.043 215.384 117.043V117.046C216.755 117.046 220.183 118.759 215.041 120.473C209.9 122.188 210.241 120.473 208.186 123.9C206.129 127.328 204.416 126.642 204.416 130.069C204.416 133.497 205.444 140.353 204.073 142.408C202.701 144.464 203.045 150.291 203.044 152.006C203.044 152.006 203.73 163.316 202.701 167.085C202.119 169.222 202.094 171.352 202.237 173.302C202.349 174.792 202.555 176.179 202.703 177.366C203.045 180.109 205.102 192.448 204.416 195.532L204.421 195.535C203.736 198.619 198.938 215.757 198.595 219.185C198.251 222.612 197.908 228.438 198.938 231.182C199.964 233.923 198.938 240.778 198.251 244.549C198.251 244.549 199.964 251.061 199.964 253.46C199.964 255.858 199.964 262.371 199.964 262.371L198.594 265.798L187.715 374.84C187.715 374.84 184.531 384.043 183.161 388.156C181.789 392.269 183.503 399.467 178.705 403.237C173.907 407.008 172.193 408.378 171.507 412.492C170.821 416.604 171.508 422.774 167.736 425.518C167.736 425.518 162.596 438.541 162.253 441.969C162.253 441.969 155.056 458.078 153.685 461.849C152.314 465.618 146.145 484.128 147.515 488.241C148.886 492.354 151.286 495.781 148.886 500.58C146.486 505.378 143.402 512.576 145.802 521.146C148.201 529.714 149.229 533.484 146.83 535.884C144.431 538.283 137.577 553.365 136.548 556.792C135.52 560.22 134.148 571.873 133.807 574.615C133.464 577.356 132.778 582.154 131.064 585.583C131.064 585.583 125.923 598.265 125.923 603.062C125.923 607.86 123.181 615.058 121.468 618.486L118.998 625.267C117.439 625.428 115.64 627.227 114.61 629.798C114.052 631.195 113.209 632.421 112.149 633.5C112.149 633.5 105.357 626.027 105.7 621.229C106.043 616.43 106.386 610.946 105.015 607.52C103.643 604.091 102.271 597.236 102.271 595.18L90.2764 559.191C90.2764 559.191 70.7393 497.153 67.998 494.068C67.998 494.068 65.165 491.976 62.6211 489.373C60.123 486.817 57.9004 483.77 58.9189 481.73C60.9756 477.618 60.9756 475.047 58.9189 471.447C56.8623 467.849 56.3477 462.707 56.3477 459.108C56.3477 459.108 44.5234 422.605 40.4102 414.894L15.661 337.886Z" fill="white"/>
</mask>
<g mask="url(#mask0_111_71)">
<path d="M270.219 633.5V19.5H167.886V633.5H270.219Z" fill="black"/>
<path d="M167.886 633.5V19.5H65.5529V633.5H167.886Z" fill="white"/>
<path d="M65.5527 633.5V19.5H-36.7806V633.5H65.5527Z" fill="#007A3D"/>
<path d="M270.219 19.5L116.719 224.167L-36.7805 19.5H270.219Z" fill="#CE1126"/>
</g>
</svg>
