<svg width="895" height="71" viewBox="0 0 895 71" fill="none" xmlns="http://www.w3.org/2000/svg">
<mask id="path-1-outside-1_108_20" maskUnits="userSpaceOnUse" x="-4" y="-4" width="903" height="79" fill="black">
<rect fill="white" x="-4" y="-4" width="903" height="79"/>
<path d="M0.680001 69V1.992H45.128V13.8H15.08V29.16H41.96V40.968H15.08V69H0.680001ZM72.0665 69H57.8585V1.992H83.7785C87.0425 1.992 89.9545 2.504 92.5145 3.528C95.0745 4.488 97.2185 5.896 98.9465 7.752C100.739 9.608 102.083 11.848 102.979 14.472C103.875 17.096 104.323 20.04 104.323 23.304C104.323 28.04 103.299 32.104 101.25 35.496C99.2025 38.888 96.2905 41.128 92.5145 42.216L105.667 69H89.9225L78.6905 44.136H72.0665V69ZM80.3225 33C83.7145 33 86.0505 32.36 87.3305 31.08C88.6745 29.8 89.3465 27.688 89.3465 24.744V21.864C89.3465 18.92 88.6745 16.808 87.3305 15.528C86.0505 14.248 83.7145 13.608 80.3225 13.608H72.0665V33H80.3225ZM115.805 69V1.992H158.621V13.8H130.205V29.16H157.661V40.968H130.205V57.192H158.621V69H115.805ZM173.368 69V1.992H216.184V13.8H187.768V29.16H215.224V40.968H187.768V57.192H216.184V69H173.368ZM288.109 69V1.992H314.029C317.293 1.992 320.205 2.504 322.765 3.528C325.325 4.488 327.469 5.896 329.197 7.752C330.989 9.608 332.333 11.848 333.229 14.472C334.125 17.096 334.573 20.04 334.573 23.304C334.573 26.568 334.125 29.512 333.229 32.136C332.333 34.76 330.989 37 329.197 38.856C327.469 40.712 325.325 42.152 322.765 43.176C320.205 44.136 317.293 44.616 314.029 44.616H302.605V69H288.109ZM302.605 33H310.381C313.773 33 316.109 32.36 317.389 31.08C318.733 29.8 319.405 27.688 319.405 24.744V21.864C319.405 18.92 318.733 16.808 317.389 15.528C316.109 14.248 313.773 13.608 310.381 13.608H302.605V33ZM380.135 69L375.911 52.872H357.575L353.447 69H338.855L356.999 1.992H377.351L395.495 69H380.135ZM367.175 15.912H366.407L359.879 41.256H373.703L367.175 15.912ZM404.77 69V1.992H419.266V57.192H448.066V69H404.77ZM461.18 69V1.992H503.996V13.8H475.58V29.16H503.036V40.968H475.58V57.192H503.996V69H461.18ZM538.807 70.152C533.175 70.152 528.279 69.224 524.119 67.368C519.959 65.512 516.599 62.984 514.039 59.784L522.391 50.568C524.823 53.256 527.479 55.24 530.359 56.52C533.303 57.8 536.279 58.44 539.286 58.44C542.743 58.44 545.367 57.672 547.159 56.136C548.951 54.6 549.847 52.392 549.847 49.512C549.847 47.144 549.143 45.352 547.735 44.136C546.391 42.92 544.087 42.056 540.823 41.544L533.815 40.392C527.799 39.368 523.447 37.16 520.759 33.768C518.071 30.312 516.727 26.12 516.727 21.192C516.727 14.728 518.839 9.736 523.062 6.216C527.287 2.632 533.207 0.839996 540.823 0.839996C546.007 0.839996 550.519 1.64 554.359 3.23999C558.199 4.84 561.303 7.016 563.671 9.768L555.511 18.888C553.719 16.904 551.607 15.368 549.175 14.28C546.743 13.128 543.991 12.552 540.919 12.552C534.455 12.552 531.223 15.208 531.223 20.52C531.223 22.824 531.927 24.552 533.335 25.704C534.807 26.856 537.175 27.72 540.439 28.296L547.447 29.544C552.887 30.504 557.079 32.552 560.023 35.688C562.967 38.824 564.439 43.048 564.439 48.36C564.439 51.496 563.895 54.408 562.807 57.096C561.719 59.72 560.087 62.024 557.911 64.008C555.735 65.928 553.047 67.432 549.847 68.52C546.711 69.608 543.031 70.152 538.807 70.152ZM604.625 13.8V69H590.225V13.8H570.929V1.992H623.921V13.8H604.625ZM633.388 69V58.344H647.788V12.648H633.388V1.992H676.588V12.648H662.188V58.344H676.588V69H633.388ZM702.95 24.456H701.894V69H689.606V1.992H706.886L722.15 46.536H723.206V1.992H735.494V69H718.214L702.95 24.456ZM748.993 69V1.992H791.809V13.8H763.393V29.16H790.849V40.968H763.393V57.192H791.809V69H748.993ZM825.371 45.672L819.899 21.48V1.992H835.451V21.48L829.979 45.672H825.371ZM827.675 70.152C824.219 70.152 821.787 69.416 820.379 67.944C818.971 66.472 818.267 64.712 818.267 62.664V59.592C818.267 57.608 818.971 55.88 820.379 54.408C821.851 52.936 824.283 52.2 827.675 52.2C831.067 52.2 833.467 52.936 834.875 54.408C836.347 55.88 837.083 57.608 837.083 59.592V62.664C837.083 64.712 836.379 66.472 834.971 67.944C833.563 69.416 831.131 70.152 827.675 70.152ZM882.934 45.672L877.462 21.48V1.992H893.014V21.48L887.542 45.672H882.934ZM885.238 70.152C881.782 70.152 879.35 69.416 877.942 67.944C876.534 66.472 875.83 64.712 875.83 62.664V59.592C875.83 57.608 876.534 55.88 877.942 54.408C879.414 52.936 881.846 52.2 885.238 52.2C888.63 52.2 891.03 52.936 892.438 54.408C893.91 55.88 894.646 57.608 894.646 59.592V62.664C894.646 64.712 893.942 66.472 892.534 67.944C891.126 69.416 888.694 70.152 885.238 70.152Z"/>
</mask>
<path d="M0.680001 69H-3.32V73H0.680001V69ZM0.680001 1.992V-2.008H-3.32V1.992H0.680001ZM45.128 1.992H49.128V-2.008H45.128V1.992ZM45.128 13.8V17.8H49.128V13.8H45.128ZM15.08 13.8V9.8H11.08V13.8H15.08ZM15.08 29.16H11.08V33.16H15.08V29.16ZM41.96 29.16H45.96V25.16H41.96V29.16ZM41.96 40.968V44.968H45.96V40.968H41.96ZM15.08 40.968V36.968H11.08V40.968H15.08ZM15.08 69V73H19.08V69H15.08ZM4.68 69V1.992H-3.32V69H4.68ZM0.680001 5.992H45.128V-2.008H0.680001V5.992ZM41.128 1.992V13.8H49.128V1.992H41.128ZM45.128 9.8H15.08V17.8H45.128V9.8ZM11.08 13.8V29.16H19.08V13.8H11.08ZM15.08 33.16H41.96V25.16H15.08V33.16ZM37.96 29.16V40.968H45.96V29.16H37.96ZM41.96 36.968H15.08V44.968H41.96V36.968ZM11.08 40.968V69H19.08V40.968H11.08ZM15.08 65H0.680001V73H15.08V65ZM72.0665 69V73H76.0665V69H72.0665ZM57.8585 69H53.8585V73H57.8585V69ZM57.8585 1.992V-2.008H53.8585V1.992H57.8585ZM92.5145 3.528L91.0289 7.2419L91.0693 7.25805L91.11 7.27331L92.5145 3.528ZM98.9465 7.752L96.0189 10.4777L96.0437 10.5043L96.0689 10.5304L98.9465 7.752ZM101.25 35.496L97.8262 33.4285L97.8262 33.4285L101.25 35.496ZM92.5145 42.216L91.407 38.3724L86.8199 39.6941L88.924 43.9791L92.5145 42.216ZM105.667 69V73H112.087L109.257 67.2369L105.667 69ZM89.9225 69L86.2772 70.6467L87.3403 73H89.9225V69ZM78.6905 44.136L82.3358 42.4893L81.2728 40.136H78.6905V44.136ZM72.0665 44.136V40.136H68.0665V44.136H72.0665ZM87.3305 31.08L84.5719 28.1834L84.5366 28.2171L84.5021 28.2516L87.3305 31.08ZM87.3305 15.528L84.5021 18.3564L84.5366 18.3909L84.5719 18.4245L87.3305 15.528ZM72.0665 13.608V9.608H68.0665V13.608H72.0665ZM72.0665 33H68.0665V37H72.0665V33ZM72.0665 65H57.8585V73H72.0665V65ZM61.8585 69V1.992H53.8585V69H61.8585ZM57.8585 5.992H83.7785V-2.008H57.8585V5.992ZM83.7785 5.992C86.6254 5.992 89.0197 6.43821 91.0289 7.2419L94.0001 -0.185911C90.8893 -1.43022 87.4596 -2.008 83.7785 -2.008V5.992ZM91.11 7.27331C93.1365 8.03325 94.7453 9.10968 96.0189 10.4777L101.874 5.02633C99.6917 2.68231 97.0125 0.942743 93.919 -0.217321L91.11 7.27331ZM96.0689 10.5304C97.4229 11.9328 98.4725 13.6542 99.1931 15.7646L106.764 13.1794C105.693 10.0418 104.054 7.28323 101.824 4.97362L96.0689 10.5304ZM99.1931 15.7646C99.9244 17.9061 100.323 20.4037 100.323 23.304H108.323C108.323 19.6763 107.825 16.2859 106.764 13.1794L99.1931 15.7646ZM100.323 23.304C100.323 27.4544 99.4299 30.7725 97.8262 33.4285L104.675 37.5635C107.167 33.4355 108.323 28.6256 108.323 23.304H100.323ZM97.8262 33.4285C96.2943 35.9657 94.2057 37.566 91.407 38.3724L93.622 46.0596C98.3753 44.69 102.111 41.8103 104.675 37.5635L97.8262 33.4285ZM88.924 43.9791L102.076 70.7631L109.257 67.2369L96.105 40.4529L88.924 43.9791ZM105.667 65H89.9225V73H105.667V65ZM93.5678 67.3533L82.3358 42.4893L75.0452 45.7827L86.2772 70.6467L93.5678 67.3533ZM78.6905 40.136H72.0665V48.136H78.6905V40.136ZM68.0665 44.136V69H76.0665V44.136H68.0665ZM80.3225 37C83.9448 37 87.6959 36.3714 90.1589 33.9084L84.5021 28.2516C84.4051 28.3486 83.4842 29 80.3225 29V37ZM90.0891 33.9765C92.5862 31.5984 93.3465 28.1582 93.3465 24.744H85.3465C85.3465 27.2178 84.7628 28.0016 84.5719 28.1834L90.0891 33.9765ZM93.3465 24.744V21.864H85.3465V24.744H93.3465ZM93.3465 21.864C93.3465 18.4498 92.5862 15.0096 90.0891 12.6314L84.5719 18.4245C84.7628 18.6064 85.3465 19.3902 85.3465 21.864H93.3465ZM90.1589 12.6996C87.6959 10.2366 83.9448 9.608 80.3225 9.608V17.608C83.4842 17.608 84.4051 18.2594 84.5021 18.3564L90.1589 12.6996ZM80.3225 9.608H72.0665V17.608H80.3225V9.608ZM68.0665 13.608V33H76.0665V13.608H68.0665ZM72.0665 37H80.3225V29H72.0665V37ZM115.805 69H111.805V73H115.805V69ZM115.805 1.992V-2.008H111.805V1.992H115.805ZM158.621 1.992H162.621V-2.008H158.621V1.992ZM158.621 13.8V17.8H162.621V13.8H158.621ZM130.205 13.8V9.8H126.205V13.8H130.205ZM130.205 29.16H126.205V33.16H130.205V29.16ZM157.661 29.16H161.661V25.16H157.661V29.16ZM157.661 40.968V44.968H161.661V40.968H157.661ZM130.205 40.968V36.968H126.205V40.968H130.205ZM130.205 57.192H126.205V61.192H130.205V57.192ZM158.621 57.192H162.621V53.192H158.621V57.192ZM158.621 69V73H162.621V69H158.621ZM119.805 69V1.992H111.805V69H119.805ZM115.805 5.992H158.621V-2.008H115.805V5.992ZM154.621 1.992V13.8H162.621V1.992H154.621ZM158.621 9.8H130.205V17.8H158.621V9.8ZM126.205 13.8V29.16H134.205V13.8H126.205ZM130.205 33.16H157.661V25.16H130.205V33.16ZM153.661 29.16V40.968H161.661V29.16H153.661ZM157.661 36.968H130.205V44.968H157.661V36.968ZM126.205 40.968V57.192H134.205V40.968H126.205ZM130.205 61.192H158.621V53.192H130.205V61.192ZM154.621 57.192V69H162.621V57.192H154.621ZM158.621 65H115.805V73H158.621V65ZM173.368 69H169.368V73H173.368V69ZM173.368 1.992V-2.008H169.368V1.992H173.368ZM216.184 1.992H220.184V-2.008H216.184V1.992ZM216.184 13.8V17.8H220.184V13.8H216.184ZM187.768 13.8V9.8H183.768V13.8H187.768ZM187.768 29.16H183.768V33.16H187.768V29.16ZM215.224 29.16H219.224V25.16H215.224V29.16ZM215.224 40.968V44.968H219.224V40.968H215.224ZM187.768 40.968V36.968H183.768V40.968H187.768ZM187.768 57.192H183.768V61.192H187.768V57.192ZM216.184 57.192H220.184V53.192H216.184V57.192ZM216.184 69V73H220.184V69H216.184ZM177.368 69V1.992H169.368V69H177.368ZM173.368 5.992H216.184V-2.008H173.368V5.992ZM212.184 1.992V13.8H220.184V1.992H212.184ZM216.184 9.8H187.768V17.8H216.184V9.8ZM183.768 13.8V29.16H191.768V13.8H183.768ZM187.768 33.16H215.224V25.16H187.768V33.16ZM211.224 29.16V40.968H219.224V29.16H211.224ZM215.224 36.968H187.768V44.968H215.224V36.968ZM183.768 40.968V57.192H191.768V40.968H183.768ZM187.768 61.192H216.184V53.192H187.768V61.192ZM212.184 57.192V69H220.184V57.192H212.184ZM216.184 65H173.368V73H216.184V65ZM288.109 69H284.109V73H288.109V69ZM288.109 1.992V-2.008H284.109V1.992H288.109ZM322.765 3.528L321.279 7.2419L321.319 7.25805L321.36 7.27331L322.765 3.528ZM329.197 7.752L326.269 10.4777L326.294 10.5043L326.319 10.5304L329.197 7.752ZM333.229 32.136L337.014 33.4286L337.014 33.4286L333.229 32.136ZM329.197 38.856L326.319 36.0776L326.294 36.1037L326.269 36.1303L329.197 38.856ZM322.765 43.176L324.169 46.9213L324.21 46.906L324.25 46.8899L322.765 43.176ZM302.605 44.616V40.616H298.605V44.616H302.605ZM302.605 69V73H306.605V69H302.605ZM302.605 33H298.605V37H302.605V33ZM317.389 31.08L314.63 28.1834L314.595 28.2171L314.56 28.2516L317.389 31.08ZM317.389 15.528L314.56 18.3564L314.595 18.3909L314.63 18.4245L317.389 15.528ZM302.605 13.608V9.608H298.605V13.608H302.605ZM292.109 69V1.992H284.109V69H292.109ZM288.109 5.992H314.029V-2.008H288.109V5.992ZM314.029 5.992C316.875 5.992 319.27 6.43821 321.279 7.2419L324.25 -0.185911C321.139 -1.43022 317.71 -2.008 314.029 -2.008V5.992ZM321.36 7.27331C323.387 8.03325 324.995 9.10968 326.269 10.4777L332.124 5.02633C329.942 2.68231 327.263 0.942743 324.169 -0.217321L321.36 7.27331ZM326.319 10.5304C327.673 11.9328 328.722 13.6542 329.443 15.7646L337.014 13.1794C335.943 10.0418 334.304 7.28323 332.074 4.97362L326.319 10.5304ZM329.443 15.7646C330.174 17.9061 330.573 20.4037 330.573 23.304H338.573C338.573 19.6763 338.075 16.2859 337.014 13.1794L329.443 15.7646ZM330.573 23.304C330.573 26.2043 330.174 28.7019 329.443 30.8434L337.014 33.4286C338.075 30.3221 338.573 26.9317 338.573 23.304H330.573ZM329.443 30.8434C328.722 32.9538 327.673 34.6752 326.319 36.0776L332.074 41.6344C334.304 39.3248 335.943 36.5662 337.014 33.4286L329.443 30.8434ZM326.269 36.1303C324.977 37.518 323.34 38.6378 321.279 39.4621L324.25 46.8899C327.309 45.6662 329.96 43.906 332.124 41.5817L326.269 36.1303ZM321.36 39.4307C319.327 40.1931 316.904 40.616 314.029 40.616V48.616C317.681 48.616 321.082 48.0789 324.169 46.9213L321.36 39.4307ZM314.029 40.616H302.605V48.616H314.029V40.616ZM298.605 44.616V69H306.605V44.616H298.605ZM302.605 65H288.109V73H302.605V65ZM302.605 37H310.381V29H302.605V37ZM310.381 37C314.003 37 317.754 36.3714 320.217 33.9084L314.56 28.2516C314.463 28.3486 313.542 29 310.381 29V37ZM320.147 33.9765C322.644 31.5984 323.405 28.1582 323.405 24.744H315.405C315.405 27.2178 314.821 28.0016 314.63 28.1834L320.147 33.9765ZM323.405 24.744V21.864H315.405V24.744H323.405ZM323.405 21.864C323.405 18.4498 322.644 15.0096 320.147 12.6314L314.63 18.4245C314.821 18.6064 315.405 19.3902 315.405 21.864H323.405ZM320.217 12.6996C317.754 10.2366 314.003 9.608 310.381 9.608V17.608C313.542 17.608 314.463 18.2594 314.56 18.3564L320.217 12.6996ZM310.381 9.608H302.605V17.608H310.381V9.608ZM298.605 13.608V33H306.605V13.608H298.605ZM380.135 69L376.266 70.0134L377.048 73H380.135V69ZM375.911 52.872L379.78 51.8586L378.998 48.872H375.911V52.872ZM357.575 52.872V48.872H354.47L353.7 51.8802L357.575 52.872ZM353.447 69V73H356.552L357.322 69.9918L353.447 69ZM338.855 69L334.994 67.9546L333.628 73H338.855V69ZM356.999 1.992V-2.008H353.938L353.138 0.946551L356.999 1.992ZM377.351 1.992L381.212 0.946551L380.412 -2.008H377.351V1.992ZM395.495 69V73H400.722L399.356 67.9546L395.495 69ZM367.175 15.912L371.049 14.9143L370.275 11.912H367.175V15.912ZM366.407 15.912V11.912H363.307L362.533 14.9143L366.407 15.912ZM359.879 41.256L356.005 40.2583L354.718 45.256H359.879V41.256ZM373.703 41.256V45.256H378.864L377.577 40.2583L373.703 41.256ZM384.004 67.9866L379.78 51.8586L372.042 53.8854L376.266 70.0134L384.004 67.9866ZM375.911 48.872H357.575V56.872H375.911V48.872ZM353.7 51.8802L349.572 68.0082L357.322 69.9918L361.45 53.8638L353.7 51.8802ZM353.447 65H338.855V73H353.447V65ZM342.716 70.0454L360.86 3.03745L353.138 0.946551L334.994 67.9546L342.716 70.0454ZM356.999 5.992H377.351V-2.008H356.999V5.992ZM373.49 3.03745L391.634 70.0454L399.356 67.9546L381.212 0.946551L373.49 3.03745ZM395.495 65H380.135V73H395.495V65ZM367.175 11.912H366.407V19.912H367.175V11.912ZM362.533 14.9143L356.005 40.2583L363.753 42.2537L370.281 16.9097L362.533 14.9143ZM359.879 45.256H373.703V37.256H359.879V45.256ZM377.577 40.2583L371.049 14.9143L363.301 16.9097L369.829 42.2537L377.577 40.2583ZM404.77 69H400.77V73H404.77V69ZM404.77 1.992V-2.008H400.77V1.992H404.77ZM419.266 1.992H423.266V-2.008H419.266V1.992ZM419.266 57.192H415.266V61.192H419.266V57.192ZM448.066 57.192H452.066V53.192H448.066V57.192ZM448.066 69V73H452.066V69H448.066ZM408.77 69V1.992H400.77V69H408.77ZM404.77 5.992H419.266V-2.008H404.77V5.992ZM415.266 1.992V57.192H423.266V1.992H415.266ZM419.266 61.192H448.066V53.192H419.266V61.192ZM444.066 57.192V69H452.066V57.192H444.066ZM448.066 65H404.77V73H448.066V65ZM461.18 69H457.18V73H461.18V69ZM461.18 1.992V-2.008H457.18V1.992H461.18ZM503.996 1.992H507.996V-2.008H503.996V1.992ZM503.996 13.8V17.8H507.996V13.8H503.996ZM475.58 13.8V9.8H471.58V13.8H475.58ZM475.58 29.16H471.58V33.16H475.58V29.16ZM503.036 29.16H507.036V25.16H503.036V29.16ZM503.036 40.968V44.968H507.036V40.968H503.036ZM475.58 40.968V36.968H471.58V40.968H475.58ZM475.58 57.192H471.58V61.192H475.58V57.192ZM503.996 57.192H507.996V53.192H503.996V57.192ZM503.996 69V73H507.996V69H503.996ZM465.18 69V1.992H457.18V69H465.18ZM461.18 5.992H503.996V-2.008H461.18V5.992ZM499.996 1.992V13.8H507.996V1.992H499.996ZM503.996 9.8H475.58V17.8H503.996V9.8ZM471.58 13.8V29.16H479.58V13.8H471.58ZM475.58 33.16H503.036V25.16H475.58V33.16ZM499.036 29.16V40.968H507.036V29.16H499.036ZM503.036 36.968H475.58V44.968H503.036V36.968ZM471.58 40.968V57.192H479.58V40.968H471.58ZM475.58 61.192H503.996V53.192H475.58V61.192ZM499.996 57.192V69H507.996V57.192H499.996ZM503.996 65H461.18V73H503.996V65ZM524.119 67.368L525.748 63.7151L525.748 63.7151L524.119 67.368ZM514.039 59.784L511.075 57.0979L508.787 59.6224L510.915 62.2828L514.039 59.784ZM522.391 50.568L525.357 47.8843L522.393 44.6087L519.427 47.8819L522.391 50.568ZM530.359 56.52L528.734 60.1752L528.749 60.1818L528.764 60.1883L530.359 56.52ZM547.159 56.136L549.762 59.173L549.762 59.173L547.159 56.136ZM547.735 44.136L545.051 47.1021L545.085 47.1331L545.12 47.1633L547.735 44.136ZM540.823 41.544L540.174 45.491L540.188 45.4934L540.203 45.4957L540.823 41.544ZM533.815 40.392L533.143 44.3353L533.154 44.3372L533.166 44.339L533.815 40.392ZM520.759 33.768L517.601 36.2238L517.612 36.2381L517.624 36.2523L520.759 33.768ZM523.062 6.216L525.623 9.28888L525.637 9.27752L525.65 9.26603L523.062 6.216ZM554.359 3.23999L555.897 -0.452313L555.897 -0.452314L554.359 3.23999ZM563.671 9.768L566.651 12.4352L568.992 9.81951L566.703 7.15903L563.671 9.768ZM555.511 18.888L552.542 21.5691L555.525 24.8711L558.491 21.5552L555.511 18.888ZM549.175 14.28L547.462 17.8949L547.501 17.9135L547.541 17.9313L549.175 14.28ZM533.335 25.704L530.802 28.7998L530.835 28.8273L530.869 28.854L533.335 25.704ZM540.439 28.296L541.14 24.3579L541.134 24.3569L540.439 28.296ZM547.447 29.544L546.745 33.482L546.751 33.4831L547.447 29.544ZM560.023 35.688L562.939 32.9503L562.939 32.9503L560.023 35.688ZM562.807 57.096L566.501 58.6281L566.508 58.6124L566.514 58.5968L562.807 57.096ZM557.911 64.008L560.557 67.0074L560.581 66.9858L560.606 66.9638L557.911 64.008ZM549.847 68.52L548.559 64.7329L548.547 64.7369L548.535 64.741L549.847 68.52ZM538.807 66.152C533.607 66.152 529.289 65.2949 525.748 63.7151L522.489 71.0209C527.268 73.1531 532.742 74.152 538.807 74.152V66.152ZM525.748 63.7151C522.105 62.0897 519.28 59.9333 517.162 57.2852L510.915 62.2828C513.917 66.0347 517.812 68.9343 522.489 71.0209L525.748 63.7151ZM517.002 62.4701L525.354 53.2541L519.427 47.8819L511.075 57.0979L517.002 62.4701ZM519.424 53.2517C522.175 56.2917 525.273 58.637 528.734 60.1752L531.983 52.8648C529.684 51.843 527.47 50.2203 525.357 47.8843L519.424 53.2517ZM528.764 60.1883C532.177 61.6722 535.693 62.44 539.286 62.44V54.44C536.864 54.44 534.428 53.9278 531.953 52.8517L528.764 60.1883ZM539.286 62.44C543.265 62.44 546.973 61.5635 549.762 59.173L544.555 53.099C543.76 53.7805 542.22 54.44 539.286 54.44V62.44ZM549.762 59.173C552.633 56.7116 553.847 53.2789 553.847 49.512H545.847C545.847 51.5051 545.268 52.4884 544.555 53.099L549.762 59.173ZM553.847 49.512C553.847 46.3226 552.866 43.2822 550.349 41.1087L545.12 47.1633C545.419 47.4218 545.847 47.9654 545.847 49.512H553.847ZM550.418 41.1699C548.191 39.155 544.93 38.1394 541.442 37.5923L540.203 45.4957C543.243 45.9726 544.59 46.685 545.051 47.1021L550.418 41.1699ZM541.471 37.597L534.463 36.445L533.166 44.339L540.174 45.491L541.471 37.597ZM534.486 36.4487C529.045 35.5227 525.757 33.6354 523.893 31.2837L517.624 36.2523C521.136 40.6846 526.552 43.2133 533.143 44.3353L534.486 36.4487ZM523.916 31.3122C521.842 28.6459 520.727 25.3481 520.727 21.192H512.727C512.727 26.8919 514.299 31.9781 517.601 36.2238L523.916 31.3122ZM520.727 21.192C520.727 15.6836 522.475 11.9122 525.623 9.28888L520.502 3.14311C515.202 7.55978 512.727 13.7724 512.727 21.192H520.727ZM525.65 9.26603C528.921 6.49117 533.8 4.84 540.823 4.84V-3.16C532.613 -3.16 525.652 -1.22718 520.475 3.16596L525.65 9.26603ZM540.823 4.84C545.604 4.84 549.572 5.57875 552.82 6.9323L555.897 -0.452314C551.465 -2.29876 546.409 -3.16 540.823 -3.16V4.84ZM552.82 6.9323C556.169 8.32763 558.733 10.1622 560.638 12.377L566.703 7.15903C563.872 3.86981 560.228 1.35237 555.897 -0.452313L552.82 6.9323ZM560.69 7.10082L552.53 16.2208L558.491 21.5552L566.651 12.4352L560.69 7.10082ZM558.479 16.2069C556.316 13.8117 553.749 11.9446 550.808 10.6287L547.541 17.9313C549.464 18.7914 551.121 19.9963 552.542 21.5691L558.479 16.2069ZM550.887 10.665C547.849 9.22588 544.499 8.552 540.919 8.552V16.552C543.482 16.552 545.636 17.0301 547.462 17.8949L550.887 10.665ZM540.919 8.552C537.24 8.552 533.738 9.29178 531.107 11.4536C528.326 13.739 527.223 17.0178 527.223 20.52H535.223C535.223 18.7102 535.735 18.005 536.186 17.6344C536.787 17.1402 538.133 16.552 540.919 16.552V8.552ZM527.223 20.52C527.223 23.6761 528.226 26.6924 530.802 28.7998L535.867 22.6082C535.627 22.4116 535.223 21.9719 535.223 20.52H527.223ZM530.869 28.854C533.116 30.6127 536.262 31.6207 539.743 32.2351L541.134 24.3569C538.087 23.8192 536.497 23.0993 535.8 22.554L530.869 28.854ZM539.737 32.234L546.745 33.482L548.148 25.606L541.14 24.358L539.737 32.234ZM546.751 33.4831C551.584 34.3359 554.903 36.0785 557.106 38.4257L562.939 32.9503C559.254 29.0255 554.189 26.6721 548.142 25.6049L546.751 33.4831ZM557.106 38.4257C559.199 40.6554 560.439 43.8142 560.439 48.36H568.439C568.439 42.2818 566.734 36.9926 562.939 32.9503L557.106 38.4257ZM560.439 48.36C560.439 51.0238 559.978 53.4217 559.099 55.5952L566.514 58.5968C567.811 55.3943 568.439 51.9682 568.439 48.36H560.439ZM559.112 55.5639C558.257 57.6257 556.974 59.4488 555.215 61.0522L560.606 66.9638C563.199 64.5992 565.18 61.8143 566.501 58.6281L559.112 55.5639ZM555.264 61.0086C553.544 62.5261 551.34 63.7874 548.559 64.7329L551.134 72.3071C554.753 71.0766 557.925 69.3299 560.557 67.0074L555.264 61.0086ZM548.535 64.741C545.918 65.649 542.7 66.152 538.807 66.152V74.152C543.361 74.152 547.503 73.567 551.158 72.299L548.535 64.741ZM604.625 13.8V9.8H600.625V13.8H604.625ZM604.625 69V73H608.625V69H604.625ZM590.225 69H586.225V73H590.225V69ZM590.225 13.8H594.225V9.8H590.225V13.8ZM570.929 13.8H566.929V17.8H570.929V13.8ZM570.929 1.992V-2.008H566.929V1.992H570.929ZM623.921 1.992H627.921V-2.008H623.921V1.992ZM623.921 13.8V17.8H627.921V13.8H623.921ZM600.625 13.8V69H608.625V13.8H600.625ZM604.625 65H590.225V73H604.625V65ZM594.225 69V13.8H586.225V69H594.225ZM590.225 9.8H570.929V17.8H590.225V9.8ZM574.929 13.8V1.992H566.929V13.8H574.929ZM570.929 5.992H623.921V-2.008H570.929V5.992ZM619.921 1.992V13.8H627.921V1.992H619.921ZM623.921 9.8H604.625V17.8H623.921V9.8ZM633.388 69H629.388V73H633.388V69ZM633.388 58.344V54.344H629.388V58.344H633.388ZM647.788 58.344V62.344H651.788V58.344H647.788ZM647.788 12.648H651.788V8.648H647.788V12.648ZM633.388 12.648H629.388V16.648H633.388V12.648ZM633.388 1.992V-2.008H629.388V1.992H633.388ZM676.588 1.992H680.588V-2.008H676.588V1.992ZM676.588 12.648V16.648H680.588V12.648H676.588ZM662.188 12.648V8.648H658.188V12.648H662.188ZM662.188 58.344H658.188V62.344H662.188V58.344ZM676.588 58.344H680.588V54.344H676.588V58.344ZM676.588 69V73H680.588V69H676.588ZM637.388 69V58.344H629.388V69H637.388ZM633.388 62.344H647.788V54.344H633.388V62.344ZM651.788 58.344V12.648H643.788V58.344H651.788ZM647.788 8.648H633.388V16.648H647.788V8.648ZM637.388 12.648V1.992H629.388V12.648H637.388ZM633.388 5.992H676.588V-2.008H633.388V5.992ZM672.588 1.992V12.648H680.588V1.992H672.588ZM676.588 8.648H662.188V16.648H676.588V8.648ZM658.188 12.648V58.344H666.188V12.648H658.188ZM662.188 62.344H676.588V54.344H662.188V62.344ZM672.588 58.344V69H680.588V58.344H672.588ZM676.588 65H633.388V73H676.588V65ZM702.95 24.456L706.734 23.1593L705.808 20.456H702.95V24.456ZM701.894 24.456V20.456H697.894V24.456H701.894ZM701.894 69V73H705.894V69H701.894ZM689.606 69H685.606V73H689.606V69ZM689.606 1.992V-2.008H685.606V1.992H689.606ZM706.886 1.992L710.67 0.695327L709.744 -2.008H706.886V1.992ZM722.15 46.536L718.366 47.8327L719.292 50.536H722.15V46.536ZM723.206 46.536V50.536H727.206V46.536H723.206ZM723.206 1.992V-2.008H719.206V1.992H723.206ZM735.494 1.992H739.494V-2.008H735.494V1.992ZM735.494 69V73H739.494V69H735.494ZM718.214 69L714.43 70.2967L715.356 73H718.214V69ZM702.95 20.456H701.894V28.456H702.95V20.456ZM697.894 24.456V69H705.894V24.456H697.894ZM701.894 65H689.606V73H701.894V65ZM693.606 69V1.992H685.606V69H693.606ZM689.606 5.992H706.886V-2.008H689.606V5.992ZM703.102 3.28867L718.366 47.8327L725.934 45.2393L710.67 0.695327L703.102 3.28867ZM722.15 50.536H723.206V42.536H722.15V50.536ZM727.206 46.536V1.992H719.206V46.536H727.206ZM723.206 5.992H735.494V-2.008H723.206V5.992ZM731.494 1.992V69H739.494V1.992H731.494ZM735.494 65H718.214V73H735.494V65ZM721.998 67.7033L706.734 23.1593L699.166 25.7527L714.43 70.2967L721.998 67.7033ZM748.993 69H744.993V73H748.993V69ZM748.993 1.992V-2.008H744.993V1.992H748.993ZM791.809 1.992H795.809V-2.008H791.809V1.992ZM791.809 13.8V17.8H795.809V13.8H791.809ZM763.393 13.8V9.8H759.393V13.8H763.393ZM763.393 29.16H759.393V33.16H763.393V29.16ZM790.849 29.16H794.849V25.16H790.849V29.16ZM790.849 40.968V44.968H794.849V40.968H790.849ZM763.393 40.968V36.968H759.393V40.968H763.393ZM763.393 57.192H759.393V61.192H763.393V57.192ZM791.809 57.192H795.809V53.192H791.809V57.192ZM791.809 69V73H795.809V69H791.809ZM752.993 69V1.992H744.993V69H752.993ZM748.993 5.992H791.809V-2.008H748.993V5.992ZM787.809 1.992V13.8H795.809V1.992H787.809ZM791.809 9.8H763.393V17.8H791.809V9.8ZM759.393 13.8V29.16H767.393V13.8H759.393ZM763.393 33.16H790.849V25.16H763.393V33.16ZM786.849 29.16V40.968H794.849V29.16H786.849ZM790.849 36.968H763.393V44.968H790.849V36.968ZM759.393 40.968V57.192H767.393V40.968H759.393ZM763.393 61.192H791.809V53.192H763.393V61.192ZM787.809 57.192V69H795.809V57.192H787.809ZM791.809 65H748.993V73H791.809V65ZM825.371 45.672L821.47 46.5545L822.175 49.672H825.371V45.672ZM819.899 21.48H815.899V21.9267L815.998 22.3625L819.899 21.48ZM819.899 1.992V-2.008H815.899V1.992H819.899ZM835.451 1.992H839.451V-2.008H835.451V1.992ZM835.451 21.48L839.352 22.3625L839.451 21.9267V21.48H835.451ZM829.979 45.672V49.672H833.175L833.88 46.5545L829.979 45.672ZM820.379 54.408L817.551 51.5796L817.519 51.611L817.488 51.6431L820.379 54.408ZM834.875 54.408L831.984 57.1729L832.015 57.205L832.047 57.2364L834.875 54.408ZM829.272 44.7895L823.8 20.5975L815.998 22.3625L821.47 46.5545L829.272 44.7895ZM823.899 21.48V1.992H815.899V21.48H823.899ZM819.899 5.992H835.451V-2.008H819.899V5.992ZM831.451 1.992V21.48H839.451V1.992H831.451ZM831.55 20.5975L826.078 44.7895L833.88 46.5545L839.352 22.3625L831.55 20.5975ZM829.979 41.672H825.371V49.672H829.979V41.672ZM827.675 66.152C824.592 66.152 823.54 65.4616 823.27 65.1791L817.488 70.7089C820.034 73.3704 823.846 74.152 827.675 74.152V66.152ZM823.27 65.1791C822.578 64.456 822.267 63.6881 822.267 62.664H814.267C814.267 65.7359 815.364 68.488 817.488 70.7089L823.27 65.1791ZM822.267 62.664V59.592H814.267V62.664H822.267ZM822.267 59.592C822.267 58.6683 822.552 57.9226 823.27 57.1729L817.488 51.6431C815.39 53.8374 814.267 56.5477 814.267 59.592H822.267ZM823.207 57.2364C823.575 56.8692 824.706 56.2 827.675 56.2V48.2C823.86 48.2 820.127 49.0028 817.551 51.5796L823.207 57.2364ZM827.675 56.2C830.667 56.2 831.703 56.8789 831.984 57.1729L837.766 51.6431C835.231 48.9931 831.467 48.2 827.675 48.2V56.2ZM832.047 57.2364C832.81 57.9994 833.083 58.7256 833.083 59.592H841.083C841.083 56.4904 839.884 53.7606 837.703 51.5796L832.047 57.2364ZM833.083 59.592V62.664H841.083V59.592H833.083ZM833.083 62.664C833.083 63.6881 832.772 64.456 832.08 65.1791L837.862 70.7089C839.986 68.488 841.083 65.7359 841.083 62.664H833.083ZM832.08 65.1791C831.81 65.4616 830.758 66.152 827.675 66.152V74.152C831.504 74.152 835.316 73.3704 837.862 70.7089L832.08 65.1791ZM882.934 45.672L879.032 46.5545L879.737 49.672H882.934V45.672ZM877.462 21.48H873.462V21.9267L873.56 22.3625L877.462 21.48ZM877.462 1.992V-2.008H873.462V1.992H877.462ZM893.014 1.992H897.014V-2.008H893.014V1.992ZM893.014 21.48L896.915 22.3625L897.014 21.9267V21.48H893.014ZM887.542 45.672V49.672H890.738L891.443 46.5545L887.542 45.672ZM877.942 54.408L875.113 51.5796L875.082 51.611L875.051 51.6431L877.942 54.408ZM892.438 54.408L889.547 57.1729L889.578 57.205L889.609 57.2364L892.438 54.408ZM886.835 44.7895L881.363 20.5975L873.56 22.3625L879.032 46.5545L886.835 44.7895ZM881.462 21.48V1.992H873.462V21.48H881.462ZM877.462 5.992H893.014V-2.008H877.462V5.992ZM889.014 1.992V21.48H897.014V1.992H889.014ZM889.112 20.5975L883.64 44.7895L891.443 46.5545L896.915 22.3625L889.112 20.5975ZM887.542 41.672H882.934V49.672H887.542V41.672ZM885.238 66.152C882.155 66.152 881.102 65.4616 880.832 65.1791L875.051 70.7089C877.597 73.3704 881.408 74.152 885.238 74.152V66.152ZM880.832 65.1791C880.14 64.456 879.83 63.6881 879.83 62.664H871.83C871.83 65.7359 872.927 68.488 875.051 70.7089L880.832 65.1791ZM879.83 62.664V59.592H871.83V62.664H879.83ZM879.83 59.592C879.83 58.6683 880.115 57.9226 880.832 57.1729L875.051 51.6431C872.952 53.8374 871.83 56.5477 871.83 59.592H879.83ZM880.77 57.2364C881.137 56.8692 882.269 56.2 885.238 56.2V48.2C881.422 48.2 877.69 49.0028 875.113 51.5796L880.77 57.2364ZM885.238 56.2C888.229 56.2 889.266 56.8789 889.547 57.1729L895.328 51.6431C892.793 48.9931 889.03 48.2 885.238 48.2V56.2ZM889.609 57.2364C890.372 57.9994 890.646 58.7256 890.646 59.592H898.646C898.646 56.4904 897.447 53.7606 895.266 51.5796L889.609 57.2364ZM890.646 59.592V62.664H898.646V59.592H890.646ZM890.646 62.664C890.646 63.6881 890.335 64.456 889.643 65.1791L895.424 70.7089C897.548 68.488 898.646 65.7359 898.646 62.664H890.646ZM889.643 65.1791C889.373 65.4616 888.32 66.152 885.238 66.152V74.152C889.067 74.152 892.878 73.3704 895.424 70.7089L889.643 65.1791Z" fill="#111111" mask="url(#path-1-outside-1_108_20)"/>
</svg>
